/* XPM */
static char * bluefish_icon1_xpm[] = {
"32 32 15 1",
" 	c None",
".	c #007F7F",
"+	c #666667",
"@	c #4C4C4C",
"#	c #999999",
"$	c #7F7F7F",
"%	c #333333",
"&	c #B2B2B2",
"*	c #CCCCCC",
"=	c #191919",
"-	c #E5E5E5",
";	c #7F7F00",
">	c #00FFFF",
",	c #00007F",
"'	c #000000",
"                                ",
"                                ",
"                                ",
"                                ",
"                             #  ",
"                           &$$  ",
"           +.+.$$$         #.   ",
"     $$.$..@.+#.$$.       #>+   ",
"    #$#.+++..####$$+     .#$+   ",
"    $#.+..++.#.##$.+.    &#$+   ",
"    #..+.+..+##.#.$.++   #>$.   ",
"    #$.+..$..*--*&$+.+.+ $$$+   ",
"    #.++.+..*---*&#.+.+. #.#@   ",
"    +..+..$.&*--#+##+.+. .#.%   ",
"    +.@+.++.&***+@$#+.+. .#.%   ",
"    @..+..+.#***#$##$.+. ..@    ",
"    @.+@.+.$$&&&&&&#$+.+ +$@    ",
"    .@@.+@.++##&####+@.+ ..@    ",
"    @.@..@.+;$###&;++@.@ +.+    ",
"    .@@@.@..@+;#;$;@.@.@ ++.    ",
"    @.@@.@.@@++@++@@%@@@ +.$@   ",
"    $+.@.@@.+.$+@@@@.@.@ ++.+   ",
"    #$$$++.$.$..@@.%@%%, @.+@.  ",
"    .##.$$.$$+$@@.%@.%=    %==  ",
"     ###.$$.$.+.@%@%%'          ",
"     ..#$#.$@.@@@@%%=           ",
"      $...+@.%%@@%==            ",
"        =%%%%@%%%=,             ",
"                                ",
"                                ",
"                                ",
"                                "};
