/* XPM */
static char *bluefish_icon[] = {
/* columns rows colors chars-per-pixel */
"32 32 188 2",
"   c #000000",
".  c #030609",
"X  c #060A0D",
"o  c #0B0A09",
"O  c #050A12",
"+  c #070F1A",
"@  c #0A0E12",
"#  c #0A1017",
"$  c #0A121C",
"%  c #131313",
"&  c #0A1422",
"*  c #0D192D",
"=  c #0E1E34",
"-  c #101924",
";  c #121D2A",
":  c #0E2036",
">  c #15202E",
",  c #152131",
"<  c #12233A",
"1  c #192532",
"2  c #18273C",
"3  c #1D2D3E",
"4  c #343434",
"5  c #102540",
"6  c #152949",
"7  c #1D2F45",
"8  c #163155",
"9  c #1A355C",
"0  c #1B3660",
"q  c #1C3964",
"w  c #1E3D6A",
"e  c #233445",
"r  c #20334B",
"t  c #283A4E",
"y  c #253951",
"u  c #2A3F54",
"i  c #1C426F",
"p  c #1D4370",
"a  c #2C4055",
"s  c #2B425C",
"d  c #30465C",
"f  c #24436D",
"g  c #2C4460",
"h  c #2D496A",
"j  c #214274",
"k  c #22467A",
"l  c #23497E",
"z  c #2F4F7A",
"x  c #344B63",
"c  c #37577C",
"v  c #3C5874",
"b  c #3C5978",
"n  c #525252",
"m  c #5D5D5D",
"M  c #5B697A",
"N  c #787B7E",
"B  c #244C83",
"V  c #254F89",
"C  c #2B4F83",
"Z  c #26518C",
"A  c #2C5285",
"S  c #2E568B",
"D  c #275693",
"F  c #285793",
"G  c #2A5895",
"H  c #2A5C9C",
"J  c #375A85",
"K  c #335B8E",
"L  c #385A83",
"P  c #3B5E8B",
"I  c #345E95",
"U  c #315E98",
"Y  c #2B5FA1",
"T  c #2F609F",
"R  c #316097",
"E  c #34619B",
"W  c #3B6295",
"Q  c #3A649A",
"!  c #2B62A5",
"~  c #2C65AB",
"^  c #2D68AF",
"/  c #2E6BB4",
"(  c #2F6FB9",
")  c #2F71BC",
"_  c #3465A2",
"`  c #3D6AA3",
"'  c #3A6DAC",
"]  c #3370B7",
"[  c #3072BD",
"{  c #3D77BB",
"}  c #3B78BD",
"|  c #2F73C0",
" . c #3074C1",
".. c #446281",
"X. c #416797",
"o. c #436B9B",
"O. c #4C729B",
"+. c #547090",
"@. c #50759A",
"#. c #436DA2",
"$. c #4671A4",
"%. c #4471A9",
"&. c #4A73A6",
"*. c #4B76AB",
"=. c #4F78A7",
"-. c #4D79AD",
";. c #437ABB",
":. c #4C7AB2",
">. c #577AA6",
",. c #517BAD",
"<. c #597BA4",
"1. c #5A7EAC",
"2. c #507EB4",
"3. c #4D82BE",
"4. c #5F82AF",
"5. c #5481B5",
"6. c #5684BA",
"7. c #5D83B3",
"8. c #5887BC",
"9. c #5B89BE",
"0. c #6783A7",
"q. c #6281AA",
"w. c #668EB7",
"e. c #668FBE",
"r. c #7C90A9",
"t. c #7C96B7",
"y. c #5687C0",
"u. c #5789C1",
"i. c #5C8DC3",
"p. c #5F91C7",
"a. c #5F91C8",
"s. c #618FC1",
"d. c #6191C6",
"f. c #6395CB",
"g. c #6798CB",
"h. c #6C94C2",
"j. c #6B9CCE",
"k. c #6A9CD1",
"l. c #729DCB",
"z. c #7A9EC8",
"x. c #6EA1D4",
"c. c #77A2CD",
"v. c #72A5D9",
"b. c #76A8DC",
"n. c #7CA9D6",
"m. c #7CACDE",
"M. c #8A8A8A",
"N. c #858E99",
"B. c #94979B",
"V. c #96999D",
"C. c #9A9998",
"Z. c #8392A6",
"A. c #8D9CAF",
"S. c #8097B3",
"D. c #92A3BA",
"F. c #99AABF",
"G. c #A6A6A6",
"H. c #AAAAAA",
"J. c #A4ACB6",
"K. c #B2B2B2",
"L. c #B4B6B9",
"P. c #BCBCBC",
"I. c #80A4CC",
"U. c #88A8CE",
"Y. c #86A9D0",
"T. c #81ADDB",
"R. c #8BADD3",
"E. c #87B2DE",
"W. c #8CB5DE",
"Q. c #93B3D9",
"!. c #83B1E1",
"~. c #8BB6E1",
"^. c #91BAE3",
"/. c #A7BBD5",
"(. c #B2B8C0",
"). c #B0BCCA",
"_. c #B6C4D4",
"`. c #CDCDCD",
"'. c #CBCDD0",
"]. c #D3D3D3",
"[. c #D3DEEB",
"{. c #DCE4EF",
"}. c #E1E1E1",
"|. c #EFEFEF",
" X c #ECF0F6",
".X c #F3F3F2",
"XX c #F2F5F9",
"oX c None",
/* pixels */
"oXoXoXoXoXoXoXoXoXoXoXoXoXoXoXoXoXoXoXoXoXoXoXoXoXoXoXoXoXoXoXoX",
"oXoXoXoXoXoXoXoXoXoXoXoXoXoXoXoXoXoXoXoXoXoXoXoXoXoXoXoXoXoXoXoX",
"oXoXoXoXoXoXoXoXoXoXoXoXoXoXoXoXoXoXoXoXoXoXoXoXoXoXoXoXoX    oX",
"oXoXoXoXoXoXoXoXoXoXoXoXoXoXoXoXoXoXoXoXoXoXoXoXoXoXoX1 ..d .   ",
"oXoXoXoXoXoXoXoXoXoXoXoXoXoXoXoXoXoXoXoXoXoXoXoXoXoXx l.j.e     ",
"oXoXoXoXoXX @ O X : w i p p f h 3 .   oXoXoXoXoXoXx n.!.@.o     ",
"oXoXoX  u O.=.o.R ! ( ( ] y.i.i.5.c &     oXoXoX1 l.~.b.v     oX",
"oXoXoXs i.f.i.{ ) ( ( ( ;.a.j.f.i.6.K < .   oXoXx W.!.v.d     oX",
"oXoXy 9.k.f.} ) ) ) ) [ 9.f.k.k.i.6.%.G 8 .   @ w.^.m.x.a     oX",
"oXX o.i.a.} ) ) ) |  .{ 8.d.f.a.i.6.-.U D 9 . 1 c.^.b.x.u     oX",
"oXo <.c.3./ ) )  . . .;.e.c.U.U.h.2.*.E H D 8 v E.~.b.j.t     oX",
"oX% J._.;./ ) )  . .| l.{..XXX.X{./.7.E G G V #.~.E.v.g.e     oX",
"oX% C.+.^ / ( ) )  .) Q..X.X.X|.P.G.).>.F F D I l.T.k.e.1     oX",
"oX% N C ^ / / ( ) ) ) Y.}.}.}.].n 4 G.D.F F Z V o.j.k.O.X     oX",
"oX% N.%.^ ^ / / / ( / h.'.`.`.`.M.m K.F.K Z V V B -.d.a     oXoX",
"oXo M ' ~ ^ ^ / / / / :.(._.P.P.P.P.L.t.K V V B l S -.1     oXoX",
"oXoX< ! ~ ~ ~ ~ ^ / ^ ' S.J.H.H.G.G.A.1.S B B B k l L -     oXoX",
"oXoX: Y Y ~ ~ ~ ~ ~ ~ ~ =.r.V.C.B.Z.q.#.B B B B k l z $     oXoX",
"oXoX= Y Y ~ ~ ~ ~ ~ ~ ~ _ &.1.0.0.,.%.S p B B k k k P -     oXoX",
"oXoX= G Y Y Y Y ! Y Y Y H I Q #.#.Q A j B B k k j C o.1     oXoX",
"oXoX& V Y H Y Y Y Y H H H D V B B l l B B l k j j Q :.u     oXoX",
"oXoX3 $.Y H H H H H H D G F H %.G V B B l k j j w W *.X.1     oX",
"oXoXO.k.y.' E Y H H H E ` :.i.i.S B B l k j j 0 & , L &.P ;     ",
"oXoXs 9.9.y.2.:.*.*.:.:.8.i.i.#.B l k k p j w =     $ 7 h y .   ",
"oXoX> =.-.&.&.&.&.-.-.-.6.6.#.B l l k j j w = .         . .     ",
"oXoX. g =.-.&.&.&.-.-.:.-.I B l k j j j w :                     ",
"oXoX  . r J o.%.&.#.#.I C l j l j j j 9 *         oXoXoXoXoXoXoX",
"oXoXoX    @ ; 2 j C B l k j j j j w 6 +         oXoXoXoXoXoXoXoX",
"oXoXoXoX        O = 9 w w j w 0 6 & .       oXoXoXoXoXoXoXoXoXoX",
"oXoXoXoXoX          . $ & & & O           oXoXoXoXoXoXoXoXoXoXoX",
"oXoXoXoXoXoXoXoXoX      .             oXoXoXoXoXoXoXoXoXoXoXoXoX",
"oXoXoXoXoXoXoXoXoXoXoX            oXoXoXoXoXoXoXoXoXoXoXoXoXoXoX"
};
