<?xml version="1.0" encoding="UTF-8" standalone="no"?>
<!-- Created with Sodipodi ("http://www.sodipodi.com/") -->
<svg
   xmlns:dc="http://purl.org/dc/elements/1.1/"
   xmlns:cc="http://web.resource.org/cc/"
   xmlns:rdf="http://www.w3.org/1999/02/22-rdf-syntax-ns#"
   xmlns:svg="http://www.w3.org/2000/svg"
   xmlns="http://www.w3.org/2000/svg"
   xmlns:xlink="http://www.w3.org/1999/xlink"
   xmlns:sodipodi="http://sodipodi.sourceforge.net/DTD/sodipodi-0.dtd"
   xmlns:inkscape="http://www.inkscape.org/namespaces/inkscape"
   id="svg548"
   sodipodi:version="0.32"
   width="48"
   height="48"
   sodipodi:docbase="/Users/michga/bluefishcvs/bluefish-artwork/bluefish-icon1-shadow-svg"
   sodipodi:docname="bluefish-icon-shadow-48x48.svg"
   inkscape:version="0.43+0.44pre4"
   version="1.0"
   inkscape:export-filename="/Users/michga/bluefishcvs/bluefish-artwork/bluefish-icon1-shadow-svg/bluefish-icon-shadow-48x48.png"
   inkscape:export-xdpi="90"
   inkscape:export-ydpi="90">
  <metadata
     id="metadata2294">
    <rdf:RDF>
      <cc:Work
         rdf:about="">
        <dc:format>image/svg+xml</dc:format>
        <dc:type
           rdf:resource="http://purl.org/dc/dcmitype/StillImage" />
      </cc:Work>
    </rdf:RDF>
  </metadata>
  <defs
     id="defs550">
    <linearGradient
       id="linearGradient604">
      <stop
         style="stop-color:#000000;stop-opacity:0.239216;"
         offset="0.000000"
         id="stop605" />
      <stop
         style="stop-color:#000000;stop-opacity:0;"
         offset="1.000000"
         id="stop606" />
    </linearGradient>
    <linearGradient
       id="linearGradient641">
      <stop
         style="stop-color:#000000;stop-opacity:0.415686;"
         offset="0.000000"
         id="stop642" />
      <stop
         style="stop-color:#000000;stop-opacity:0;"
         offset="1.000000"
         id="stop643" />
    </linearGradient>
    <linearGradient
       id="linearGradient635">
      <stop
         style="stop-color:#ffffff;stop-opacity:1;"
         offset="0.000000"
         id="stop636" />
      <stop
         style="stop-color:#ffffff;stop-opacity:0.176471;"
         offset="1.000000"
         id="stop637" />
    </linearGradient>
    <linearGradient
       id="linearGradient564">
      <stop
         style="stop-color:#3278c6;stop-opacity:1;"
         offset="0.000000"
         id="stop565" />
      <stop
         style="stop-color:#264980;stop-opacity:1;"
         offset="1.000000"
         id="stop566" />
    </linearGradient>
    <linearGradient
       id="linearGradient561">
      <stop
         style="stop-color:#72a6db;stop-opacity:1;"
         offset="0.000000"
         id="stop562" />
      <stop
         style="stop-color:#4974aa;stop-opacity:1;"
         offset="1.000000"
         id="stop563" />
    </linearGradient>
    <linearGradient
       id="linearGradient556">
      <stop
         style="stop-color:#ffffff;stop-opacity:1;"
         offset="0.000000"
         id="stop557" />
      <stop
         style="stop-color:#8f8f8f;stop-opacity:1;"
         offset="1.000000"
         id="stop558" />
    </linearGradient>
    <radialGradient
       inkscape:collect="always"
       xlink:href="#linearGradient556"
       id="radialGradient2357"
       gradientUnits="userSpaceOnUse"
       spreadMethod="pad"
       cx="24.218475"
       cy="13.491528"
       fx="24.218475"
       fy="13.491528"
       r="10.214344"
       gradientTransform="scale(0.887627,1.1266)" />
    <radialGradient
       inkscape:collect="always"
       xlink:href="#linearGradient561"
       id="radialGradient2359"
       gradientUnits="userSpaceOnUse"
       spreadMethod="pad"
       cx="31.637579"
       cy="4.2911568"
       fx="31.637579"
       fy="4.2911568"
       r="6.1138387"
       gradientTransform="scale(1.061316,0.942226)" />
    <linearGradient
       inkscape:collect="always"
       xlink:href="#linearGradient561"
       id="linearGradient2361"
       gradientUnits="userSpaceOnUse"
       spreadMethod="pad"
       x1="66.896873"
       y1="9.7092857"
       x2="68.416641"
       y2="18.198601"
       gradientTransform="scale(0.577912,1.730367)" />
    <linearGradient
       inkscape:collect="always"
       xlink:href="#linearGradient635"
       id="linearGradient2363"
       gradientUnits="userSpaceOnUse"
       spreadMethod="pad"
       x1="42.007587"
       y1="5.4559503"
       x2="56.888985"
       y2="14.642175"
       gradientTransform="scale(0.653126,1.531098)" />
    <radialGradient
       inkscape:collect="always"
       xlink:href="#linearGradient564"
       id="radialGradient2365"
       gradientUnits="userSpaceOnUse"
       spreadMethod="pad"
       cx="15.485512"
       cy="16.134611"
       fx="15.485512"
       fy="16.134611"
       r="27.532124"
       gradientTransform="scale(0.992835,1.007217)" />
    <linearGradient
       inkscape:collect="always"
       xlink:href="#linearGradient604"
       id="linearGradient2367"
       gradientUnits="userSpaceOnUse"
       spreadMethod="pad"
       x1="40.970566"
       y1="41.885136"
       x2="23.98053"
       y2="21.709469"
       gradientTransform="scale(0.992835,1.007217)" />
    <radialGradient
       inkscape:collect="always"
       xlink:href="#linearGradient561"
       id="radialGradient2369"
       gradientUnits="userSpaceOnUse"
       spreadMethod="pad"
       cx="56.924801"
       cy="25.590885"
       fx="56.924801"
       fy="25.590885"
       r="5.3430753"
       gradientTransform="scale(1.121976,0.891285)" />
    <linearGradient
       inkscape:collect="always"
       xlink:href="#linearGradient635"
       id="linearGradient2371"
       gradientUnits="userSpaceOnUse"
       spreadMethod="pad"
       x1="25.033354"
       y1="15.336463"
       x2="25.337631"
       y2="24.686901"
       gradientTransform="scale(0.959984,1.041684)" />
    <linearGradient
       inkscape:collect="always"
       xlink:href="#linearGradient556"
       id="linearGradient2373"
       gradientUnits="userSpaceOnUse"
       spreadMethod="pad"
       x1="27.607258"
       y1="16.387062"
       x2="28.115267"
       y2="24.093016"
       gradientTransform="scale(0.887627,1.1266)" />
    <radialGradient
       inkscape:collect="always"
       xlink:href="#linearGradient561"
       id="radialGradient2375"
       gradientUnits="userSpaceOnUse"
       spreadMethod="pad"
       cx="32.368511"
       cy="3.355541"
       fx="32.368511"
       fy="3.355541"
       r="6.0570164"
       gradientTransform="scale(1.040398,0.961171)" />
    <linearGradient
       inkscape:collect="always"
       xlink:href="#linearGradient561"
       id="linearGradient2377"
       gradientUnits="userSpaceOnUse"
       spreadMethod="pad"
       x1="36.829525"
       y1="47.90868"
       x2="37.259823"
       y2="54.864002"
       gradientTransform="scale(1.517475,0.658989)" />
    <linearGradient
       inkscape:collect="always"
       xlink:href="#linearGradient641"
       id="linearGradient2379"
       gradientUnits="userSpaceOnUse"
       spreadMethod="pad"
       x1="29.954319"
       y1="68.697281"
       x2="30.472109"
       y2="63.224438"
       gradientTransform="scale(1.847157,0.541373)" />
    <linearGradient
       inkscape:collect="always"
       xlink:href="#linearGradient561"
       id="linearGradient2381"
       gradientUnits="userSpaceOnUse"
       spreadMethod="pad"
       x1="29.048765"
       y1="63.281857"
       x2="29.396217"
       y2="68.898041"
       gradientTransform="scale(1.925671,0.519299)" />
    <radialGradient
       inkscape:collect="always"
       xlink:href="#linearGradient556"
       id="radialGradient3416"
       gradientUnits="userSpaceOnUse"
       gradientTransform="scale(0.887627,1.1266)"
       spreadMethod="pad"
       cx="24.218475"
       cy="13.491528"
       fx="24.218475"
       fy="13.491528"
       r="10.214344" />
    <radialGradient
       inkscape:collect="always"
       xlink:href="#linearGradient561"
       id="radialGradient3418"
       gradientUnits="userSpaceOnUse"
       gradientTransform="scale(1.061316,0.942226)"
       spreadMethod="pad"
       cx="31.637579"
       cy="4.2911568"
       fx="31.637579"
       fy="4.2911568"
       r="6.1138387" />
    <linearGradient
       inkscape:collect="always"
       xlink:href="#linearGradient561"
       id="linearGradient3420"
       gradientUnits="userSpaceOnUse"
       gradientTransform="scale(0.577912,1.730367)"
       spreadMethod="pad"
       x1="66.896873"
       y1="9.7092857"
       x2="68.416641"
       y2="18.198601" />
    <linearGradient
       inkscape:collect="always"
       xlink:href="#linearGradient635"
       id="linearGradient3422"
       gradientUnits="userSpaceOnUse"
       gradientTransform="scale(0.653126,1.531098)"
       spreadMethod="pad"
       x1="42.007587"
       y1="5.4559503"
       x2="56.888985"
       y2="14.642175" />
    <radialGradient
       inkscape:collect="always"
       xlink:href="#linearGradient564"
       id="radialGradient3424"
       gradientUnits="userSpaceOnUse"
       gradientTransform="scale(0.992835,1.007217)"
       spreadMethod="pad"
       cx="15.485512"
       cy="16.134611"
       fx="15.485512"
       fy="16.134611"
       r="27.532124" />
    <linearGradient
       inkscape:collect="always"
       xlink:href="#linearGradient604"
       id="linearGradient3426"
       gradientUnits="userSpaceOnUse"
       gradientTransform="scale(0.992835,1.007217)"
       spreadMethod="pad"
       x1="40.970566"
       y1="41.885136"
       x2="23.98053"
       y2="21.709469" />
    <radialGradient
       inkscape:collect="always"
       xlink:href="#linearGradient561"
       id="radialGradient3428"
       gradientUnits="userSpaceOnUse"
       gradientTransform="scale(1.121976,0.891285)"
       spreadMethod="pad"
       cx="56.924801"
       cy="25.590885"
       fx="56.924801"
       fy="25.590885"
       r="5.3430753" />
    <linearGradient
       inkscape:collect="always"
       xlink:href="#linearGradient635"
       id="linearGradient3430"
       gradientUnits="userSpaceOnUse"
       gradientTransform="scale(0.959984,1.041684)"
       spreadMethod="pad"
       x1="25.033354"
       y1="15.336463"
       x2="25.337631"
       y2="24.686901" />
    <linearGradient
       inkscape:collect="always"
       xlink:href="#linearGradient556"
       id="linearGradient3432"
       gradientUnits="userSpaceOnUse"
       gradientTransform="scale(0.887627,1.1266)"
       spreadMethod="pad"
       x1="27.607258"
       y1="16.387062"
       x2="28.115267"
       y2="24.093016" />
    <radialGradient
       inkscape:collect="always"
       xlink:href="#linearGradient561"
       id="radialGradient3434"
       gradientUnits="userSpaceOnUse"
       gradientTransform="scale(1.040398,0.961171)"
       spreadMethod="pad"
       cx="32.368511"
       cy="3.355541"
       fx="32.368511"
       fy="3.355541"
       r="6.0570164" />
    <linearGradient
       inkscape:collect="always"
       xlink:href="#linearGradient561"
       id="linearGradient3436"
       gradientUnits="userSpaceOnUse"
       gradientTransform="scale(1.517475,0.658989)"
       spreadMethod="pad"
       x1="36.829525"
       y1="47.90868"
       x2="37.259823"
       y2="54.864002" />
    <linearGradient
       inkscape:collect="always"
       xlink:href="#linearGradient641"
       id="linearGradient3438"
       gradientUnits="userSpaceOnUse"
       gradientTransform="scale(1.847157,0.541373)"
       spreadMethod="pad"
       x1="29.954319"
       y1="68.697281"
       x2="30.472109"
       y2="63.224438" />
    <linearGradient
       inkscape:collect="always"
       xlink:href="#linearGradient561"
       id="linearGradient3440"
       gradientUnits="userSpaceOnUse"
       gradientTransform="scale(1.925671,0.519299)"
       spreadMethod="pad"
       x1="29.048765"
       y1="63.281857"
       x2="29.396217"
       y2="68.898041" />
  </defs>
  <sodipodi:namedview
     id="base"
     width="48px"
     height="48px"
     inkscape:zoom="6.9644046"
     inkscape:cx="26.478421"
     inkscape:cy="23.557851"
     inkscape:window-width="814"
     inkscape:window-height="538"
     inkscape:window-x="236"
     inkscape:window-y="60"
     inkscape:current-layer="svg548"
     showguides="true"
     inkscape:guide-bbox="true"
     inkscape:showpageshadow="false" />
  <g
     id="g3374"
     transform="translate(0.76875,0.296297)">
    <g
       transform="translate(-40.71975,-0.699775)"
       id="g4869">
      <path
         id="path4871"
         d="M 81,26.46875 C 76.805028,31.132758 72.584986,37.227217 66.1875,39 C 63.439478,39.326943 59.108007,39.672513 58.03125,42.5625 C 61.555324,45.119903 66.866236,43.138469 70.28125,40.9375 C 75.13399,37.527964 80.107611,32.335138 81,26.46875 z "
         style="font-size:12px;opacity:0.09090899;fill:black;fill-opacity:1;fill-rule:evenodd;stroke-width:1pt" />
      <path
         id="path4876"
         d="M 81.15625,26.15625 C 76.873432,30.825878 72.762651,36.770185 66.481421,38.850913 C 63.446809,39.200236 59.145098,39.486399 57.875,42.53125 C 59.842746,44.645538 63.657279,43.867402 66.21875,43.09375 C 73.214891,40.271859 79.415863,34.013833 81.15625,26.6875 C 80.790483,27.270389 81.42406,25.903001 81.15625,26.15625 z "
         style="font-size:12px;opacity:0.09090899;fill:black;fill-opacity:1;fill-rule:evenodd;stroke-width:1pt" />
      <path
         id="path4881"
         d="M 81.28125,25.84375 C 77.040411,30.475833 73.030012,36.083975 67,38.65625 C 63.809769,38.917918 59.680642,39.332994 57.8125,42.09375 C 57.517557,43.871525 60.423978,43.853019 61.639632,43.985691 C 68.977232,43.930058 74.949486,38.306985 78.806794,32.642082 C 80.029985,30.670732 81.477296,28.062839 81.28125,25.84375 z "
         style="font-size:12px;opacity:0.09090899;fill:black;fill-opacity:1;fill-rule:evenodd;stroke-width:1pt" />
      <path
         id="path4886"
         d="M 81.34375,25.6875 C 78.328045,28.503654 75.892491,32.40412 72.4558,34.978089 C 70.663697,36.39504 68.752648,38.124842 66.481421,38.569663 C 63.423027,38.831619 59.77977,39.333327 57.8125,41.8125 C 56.932822,43.395421 59.464078,43.955964 60.5625,44.03125 C 66.385758,44.681016 71.585395,41.043542 75.430196,37.132304 C 78.196674,34.001114 81.202164,30.292742 81.46875,25.875 C 81.461624,25.847532 81.468576,25.530795 81.34375,25.6875 z "
         style="font-size:12px;opacity:0.09090899;fill:black;fill-opacity:1;fill-rule:evenodd;stroke-width:1pt" />
      <path
         id="path4891"
         d="M 81.28125,25.5625 C 80.205404,26.377492 79.281431,27.74333 78.314918,28.808476 C 75.128844,32.606751 71.54095,36.262577 67.03125,38.40625 C 64.311045,38.4979 61.443425,39.057316 59.125,40.375 C 58.29288,40.981329 57.150637,41.799443 57.59375,42.9375 C 58.601931,44.175646 60.549087,44.159828 62.09875,44.25 C 65.577531,44.188458 68.869453,42.654954 71.582002,40.655178 C 74.658397,38.435453 77.258877,35.560147 79.3125,32.375 C 80.379989,30.439291 81.623249,28.194555 81.59375,25.84375 C 81.582479,25.641118 81.539335,25.35889 81.28125,25.5625 z "
         style="font-size:12px;opacity:0.09090899;fill:black;fill-opacity:1;fill-rule:evenodd;stroke-width:1pt" />
      <path
         id="path4896"
         d="M 81.738692,26.156223 C 81.480406,32.450742 71.287915,44.499113 61.974912,44.36997 C 53.436977,44.240826 57.664444,38.549781 66.97745,38.291367 C 76.236606,33.988625 81.867941,22.186916 81.738692,26.156223 z "
         style="font-size:12px;opacity:0.09090899;fill:black;fill-opacity:1;fill-rule:evenodd;stroke-width:1pt" />
    </g>
    <g
       transform="translate(-50.05,17.49437)"
       id="g4814">
      <path
         id="path4816"
         d="M 93.84375,-11.46875 C 87.690509,-8.3760613 86.761134,-0.35301969 86.4375,5.8125 C 87.856922,9.8110246 87.653326,15.312994 92.34375,16.78125 C 95.423359,18.021725 93.877917,16.431852 92.5,14.96875 C 89.526649,10.477511 90.903696,4.8753655 92.71875,0.28125 C 92.901091,-3.7004339 92.436238,-7.8930021 94.1875,-11.59375 L 93.84375,-11.46875 z "
         style="opacity:0.09090899;fill:black;fill-opacity:1;fill-rule:evenodd;stroke:none;stroke-width:1pt;stroke-linecap:butt;stroke-linejoin:miter;stroke-opacity:1" />
      <path
         id="path4821"
         d="M 94.34375,-11.8125 C 87.942926,-9.2672618 86.824334,-1.2582115 86.322102,4.8945492 C 86.622988,8.1642579 87.964505,11.320017 88.71875,14.53125 C 90.525087,15.803023 92.438612,17.571294 94.875,17.3125 C 89.973001,13.576997 89.986275,6.2356881 92.75,1.15625 C 93.061085,-3.1563544 92.602805,-8.1188739 94.34375,-11.8125 z "
         style="opacity:0.09090899;fill:black;fill-opacity:1;fill-rule:evenodd;stroke:none;stroke-width:1pt;stroke-linecap:butt;stroke-linejoin:miter;stroke-opacity:1" />
      <path
         id="path4826"
         d="M 94.34375,-11.9375 C 88.9028,-10.099021 87.378517,-3.5947576 86.453533,1.574722 C 85.392617,6.0616295 87.636975,10.293398 88.59375,14.59375 C 90.513195,16.017742 92.650837,17.854027 95.21875,17.4375 C 90.265387,13.870425 90.014241,6.5227837 92.77633,1.4571171 C 93.50912,-2.9921855 92.389452,-7.9536265 94.71875,-12.0625 L 94.348764,-11.939171 L 94.34375,-11.9375 z "
         style="opacity:0.09090899;fill:black;fill-opacity:1;fill-rule:evenodd;stroke:none;stroke-width:1pt;stroke-linecap:butt;stroke-linejoin:miter;stroke-opacity:1" />
      <path
         id="path4831"
         d="M 94.28125,-12.0625 C 89.334645,-10.416984 87.681183,-4.9175072 86.6384,-0.21342833 C 86.111906,2.6650335 85.565108,5.7188376 86.787161,8.5008386 C 87.465767,10.562808 87.722617,12.887421 88.674484,14.783976 C 90.63559,16.305356 92.815849,18.052472 95.46875,17.53125 C 92.705843,15.409988 91.070576,12.166389 91.140982,8.6466987 C 90.918247,5.8295643 92.283968,3.227251 93.090855,0.63967737 C 93.318565,-3.6742093 92.825347,-8.3443571 94.875,-12.25 C 94.677083,-12.1875 94.479167,-12.125 94.28125,-12.0625 z "
         style="opacity:0.09090899;fill:black;fill-opacity:1;fill-rule:evenodd;stroke:none;stroke-width:1pt;stroke-linecap:butt;stroke-linejoin:miter;stroke-opacity:1" />
      <path
         id="path4836"
         d="M 94.84375,-12.375 C 92.270224,-11.7234 90.174669,-9.7621089 88.929702,-7.5468968 C 87.666359,-4.8815252 86.744985,-1.8327811 86.25,1.15625 C 86.092944,2.8904457 85.680404,4.686959 86.05084,6.4057434 C 86.884044,9.1810575 87.556245,12.004018 88.375,14.78125 C 90.341043,16.203029 92.321515,17.92301 94.910455,17.735644 C 95.91033,17.791601 95.670609,17.360622 94.96875,16.90625 C 93.300941,15.432168 91.964649,13.581165 91.595573,11.340929 C 91.13014,9.3247961 91.118386,7.2121539 91.671455,5.2102928 C 91.976513,3.7169442 92.744295,2.3637172 93.184962,0.92909024 C 93.546735,-3.0161552 92.871793,-7.1536633 94.46875,-10.90625 C 94.427584,-11.246357 95.648074,-12.809188 94.84375,-12.375 z "
         style="opacity:0.09090899;fill:black;fill-opacity:1;fill-rule:evenodd;stroke:none;stroke-width:1pt;stroke-linecap:butt;stroke-linejoin:miter;stroke-opacity:1" />
      <path
         id="path4841"
         d="M 85.79555,5.9035152 C 85.70941,1.7699794 86.65664,-2.7511986 88.63733,-7.2722696 C 90.01521,-9.7266163 91.78063,-11.793374 95.483618,-12.697546 C 92.641718,-7.7458306 93.804328,-3.5691766 93.287648,1.2531954 C 92.426448,3.2768972 91.6945,4.6549892 91.34997,7.8411932 C 91.47922,13.826276 93.416798,15.290393 96.000298,17.658513 C 92.598708,18.605845 90.23059,16.194501 88.2499,14.816726 C 87.21644,11.242882 86.8289,9.4774662 85.79555,5.9035152 z "
         style="opacity:0.09090899;fill:black;fill-opacity:1;fill-rule:evenodd;stroke:none;stroke-width:1pt;stroke-linecap:butt;stroke-linejoin:miter;stroke-opacity:1" />
      <path
         id="path4844"
         d="M 95.4375,-12.8125 C 92.796181,-12.239224 90.468701,-10.580586 89.09375,-8.25 C 87.914349,-6.5298737 87.343257,-4.2059225 86.686125,-2.1241604 C 86.005929,0.54082426 85.57621,3.313836 85.691964,6.0624981 C 86.592257,8.9831934 87.236973,12.041428 88.1875,14.90625 C 90.114734,16.308171 92.058783,18.079229 94.59875,18 C 95.032855,17.950051 96.29292,17.967047 96.09375,17.5625 C 94.171237,15.940246 92.311119,13.980644 91.875912,11.40484 C 91.376113,9.3926772 91.368722,7.2758795 91.921455,5.2727928 C 92.213876,3.8197468 92.9845,2.5114471 93.419627,1.1206901 C 93.819936,-2.945642 93.071847,-7.2441224 94.827705,-11.079819 C 94.910574,-11.602904 95.959439,-12.848859 95.500965,-12.83154 L 95.4375,-12.8125 z "
         style="opacity:0.09090899;fill:black;fill-opacity:1;fill-rule:evenodd;stroke:none;stroke-width:1pt;stroke-linecap:butt;stroke-linejoin:miter;stroke-opacity:1" />
      <path
         id="path4849"
         d="M 95.40625,-12.9375 C 90.782488,-12.053102 87.95957,-7.7740944 86.946024,-3.438925 C 86.016996,-0.25578754 85.268984,3.1608072 85.674105,6.4687424 C 86.547929,9.3002563 87.148744,12.239516 88.09375,15.03125 C 90.425333,16.918718 93.393578,18.990568 96.53125,17.78125 C 94.093165,15.850417 92.013777,13.398668 91.770211,10.203976 C 91.12946,7.0098551 92.466458,3.9224171 93.558004,1.0226301 C 93.907709,-3.3818968 93.163877,-8.1150613 95.46875,-12.125 C 95.589132,-12.522998 96.45294,-13.499761 95.40625,-12.9375 z "
         style="opacity:0.09090899;fill:black;fill-opacity:1;fill-rule:evenodd;stroke:none;stroke-width:1pt;stroke-linecap:butt;stroke-linejoin:miter;stroke-opacity:1" />
      <path
         id="path4854"
         d="M 95.375,-13.0625 C 89.747293,-12.018836 87.173879,-6.2182607 86.165397,-1.0880371 C 85.327795,2.5547714 84.968983,6.391287 86.504213,9.9112815 C 87.330735,12.30157 87.158501,15.429932 89.911106,16.507933 C 91.792258,18.018195 94.420746,18.781519 96.78125,17.84375 C 93.645696,15.576967 91.538627,12.10779 91.731032,8.0966183 C 91.745886,4.4225997 94.415069,1.4920142 93.8125,-2.25 C 93.698799,-6.0645963 94.088735,-10.078642 96.28125,-13.3125 C 95.979167,-13.229167 95.677083,-13.145833 95.375,-13.0625 z "
         style="opacity:0.09090899;fill:black;fill-opacity:1;fill-rule:evenodd;stroke:none;stroke-width:1pt;stroke-linecap:butt;stroke-linejoin:miter;stroke-opacity:1" />
      <path
         id="path4859"
         d="M 95.3125,-13.1875 C 88.19914,-11.69708 86.18525,-3.56536 85.40625,2.6875 C 84.732224,7.004503 86.893732,11.169694 87.9375,15.21875 C 90.392071,17.328773 93.759664,19.424405 97.03125,17.875 C 92.57443,14.96855 90.655007,9.2574522 92.625,4.28125 C 95.401683,-0.93864411 92.54265,-7.3585505 95.90625,-12.4375 C 96.658784,-13.754338 96.969573,-13.660973 95.3125,-13.1875 z "
         style="opacity:0.09090899;fill:black;fill-opacity:1;fill-rule:evenodd;stroke:none;stroke-width:1pt;stroke-linecap:butt;stroke-linejoin:miter;stroke-opacity:1" />
      <path
         id="path4864"
         d="M 95.28125,-13.3125 C 87.260889,-11.419278 85.582007,-1.9905199 85.125,5.125 C 85.650059,8.5574954 86.76325,12.093164 87.875,15.34375 C 90.416709,17.552475 93.900564,19.572637 97.28125,17.9375 C 92.005478,14.691819 90.634368,7.5934898 93.509172,2.3414045 C 94.87647,-2.8206797 93.080524,-8.8982621 96.673462,-13.505293 C 97.320438,-14.207761 95.442263,-13.213318 95.28125,-13.3125 z "
         style="opacity:0.09090899;fill:black;fill-opacity:1;fill-rule:evenodd;stroke:none;stroke-width:1pt;stroke-linecap:butt;stroke-linejoin:miter;stroke-opacity:1" />
    </g>
    <g
       transform="matrix(1.056819,0,0,1.056819,-44.16321,-70.55488)"
       id="g2335">
      <path
         sodipodi:type="arc"
         style="fill:url(#radialGradient3416);fill-opacity:1;fill-rule:evenodd;stroke:none;stroke-width:1pt;stroke-linecap:butt;stroke-linejoin:miter;stroke-opacity:1"
         id="path617"
         d="M 30.266524 20.25193 A 5.6613641 7.185555 0 1 1  18.943796,20.25193 A 5.6613641 7.185555 0 1 1  30.266524 20.25193 z"
         sodipodi:cx="24.60516"
         sodipodi:cy="20.25193"
         sodipodi:rx="5.6613641"
         sodipodi:ry="7.185555"
         transform="translate(25.68374,64.78223)" />
      <path
         style="font-size:12px;fill:url(#radialGradient3418);fill-rule:evenodd;stroke-width:1pt"
         d="M 40.9676,10.542 C 40.9676,13.8816 34.1576,4.6698 28.8674,7.77626 C 28.8674,4.43665 31.8886,0.507507 36.2114,0.507507 C 41.7442,0.680389 40.9676,7.20238 40.9676,10.542 z "
         id="path618"
         sodipodi:nodetypes="cccc"
         transform="translate(15.85843,74.43562)" />
      <path
         style="fill:url(#linearGradient3420);fill-opacity:1;fill-rule:evenodd;stroke:none;stroke-width:1pt;stroke-linecap:butt;stroke-linejoin:miter;stroke-opacity:1"
         d="M 34.7133,23.5539 C 34.6318,19.6426 35.5281,15.3645 37.4023,11.0865 C 38.7061,8.76411 40.3766,6.80847 43.8805,5.95291 C 41.1914,10.6384 42.2915,14.5905 41.8026,19.1536 C 40.9877,21.0685 40.2951,22.3725 39.9691,25.3874 C 40.0914,31.0507 41.9248,32.4361 44.3694,34.6769 C 41.1507,35.5733 38.9099,33.2916 37.0357,31.9879 C 36.0578,28.6062 35.6911,26.9357 34.7133,23.5539 z "
         id="path619"
         sodipodi:nodetypes="cccccccc"
         transform="translate(40.00001,64.99997)" />
      <g
         id="g595"
         transform="matrix(0.718586,0,0,0.718583,2.167268,69.94656)">
        <path
           sodipodi:type="arc"
           style="fill:black;fill-opacity:1;fill-rule:evenodd;stroke:none;stroke-width:1pt;stroke-linecap:butt;stroke-linejoin:miter;stroke-opacity:1"
           id="path596"
           d="M 64.476341 21.172836 A 2.074306 2.1607211 0 1 1  60.327729,21.172836 A 2.074306 2.1607211 0 1 1  64.476341 21.172836 z"
           sodipodi:cx="62.402035"
           sodipodi:cy="21.172836"
           sodipodi:rx="2.074306"
           sodipodi:ry="2.1607211"
           transform="translate(0,-0.122253)" />
        <path
           sodipodi:type="arc"
           style="fill:gray;fill-opacity:1;fill-rule:evenodd;stroke:none;stroke-width:1pt;stroke-linecap:butt;stroke-linejoin:miter;stroke-opacity:1"
           id="path597"
           d="M 63.957765 20.394981 A 0.77786398 1.037178 0 1 1  62.402037,20.394981 A 0.77786398 1.037178 0 1 1  63.957765 20.394981 z"
           sodipodi:cx="63.179901"
           sodipodi:cy="20.394981"
           sodipodi:rx="0.77786398"
           sodipodi:ry="1.037178" />
      </g>
      <path
         style="fill:url(#linearGradient3422);fill-opacity:0.47183102;fill-rule:evenodd;stroke:none;stroke-width:1pt;stroke-linecap:butt;stroke-linejoin:miter;stroke-opacity:1"
         d="M 35.6911,19.8871 C 36.9541,13.9385 37.2394,13.1237 38.0135,11.2088 C 38.869,9.61975 39.358,8.2753 43.1471,6.44188 C 41.1099,8.15308 40.0506,10.1087 39.2358,12.6756 C 38.8283,14.7942 38.0542,16.9129 38.5024,23.9207 C 37.8505,22.8614 36.343,20.9464 35.6911,19.8871 z "
         id="path630"
         sodipodi:nodetypes="cccccc"
         transform="translate(40.00001,64.99997)" />
      <path
         style="font-size:12px;fill:url(#radialGradient3424);fill-rule:evenodd;stroke-width:1pt"
         d="M 39.358,25.7541 C 39.1136,31.7102 29.4691,43.1108 20.6568,42.9886 C 12.5779,42.8664 5.62257,35.0105 5.62257,25.6319 C 5.62257,16.2535 11.7223,9.00879 20.5346,8.76427 C 29.9581,8.88649 39.4803,21.9982 39.358,25.7541 z "
         id="path615"
         sodipodi:nodetypes="ccccc"
         transform="translate(40.00001,64.99997)" />
      <path
         style="font-size:12px;fill:url(#linearGradient3426);fill-rule:evenodd;stroke-width:1pt"
         d="M 39.358,25.7541 C 39.1136,31.7102 29.4691,43.1108 20.6568,42.9886 C 12.5779,42.8664 5.62257,35.0105 5.62257,25.6319 C 5.62257,16.2535 11.7223,9.00879 20.5346,8.76427 C 29.9581,8.88649 39.4803,21.9982 39.358,25.7541 z "
         id="path599"
         sodipodi:nodetypes="ccccc"
         transform="translate(40.00001,64.99997)" />
      <path
         style="font-size:12px;fill:black;fill-opacity:0.19718299;fill-rule:evenodd;stroke-width:1pt"
         d="M 30.5574,20.4983 C 32.6353,23.6314 31.9371,26.2592 30.8088,28.0732 C 29.6805,29.8874 26.5297,30.8726 24.8126,30.7656 C 18.8048,30.3989 19.679,27.7421 19.679,22.2094 C 19.679,16.6768 23.3273,11.331 26.7683,11.331 C 29.3537,11.9422 30.5574,14.9657 30.5574,20.4983 z "
         id="path632"
         sodipodi:nodetypes="cssccc"
         transform="translate(40.00001,64.99997)" />
      <path
         sodipodi:type="arc"
         style="fill:url(#radialGradient3428);fill-opacity:1;fill-rule:evenodd;stroke:none;stroke-width:1pt;stroke-linecap:butt;stroke-linejoin:miter;stroke-opacity:1"
         id="path624"
         d="M 72.360035 25.081871 A 6.5392952 5.1947398 0 1 1  59.281445,25.081871 A 6.5392952 5.1947398 0 1 1  72.360035 25.081871 z"
         sodipodi:cx="65.82074"
         sodipodi:cy="25.081871"
         sodipodi:rx="6.5392952"
         sodipodi:ry="5.1947398"
         transform="matrix(0.952492,0,0,1.146567,1.879499,60.00722)" />
      <path
         sodipodi:type="arc"
         style="fill:url(#linearGradient3430);fill-opacity:1;fill-rule:evenodd;stroke:none;stroke-width:1pt;stroke-linecap:butt;stroke-linejoin:miter;stroke-opacity:1"
         id="path633"
         d="M 30.06853 22.20948 A 5.744801 6.2337108 0 1 1  18.578928,22.20948 A 5.744801 6.2337108 0 1 1  30.06853 22.20948 z"
         sodipodi:cx="24.323729"
         sodipodi:cy="22.20948"
         sodipodi:rx="5.744801"
         sodipodi:ry="6.2337108"
         transform="matrix(1,0,0,0.932637,39.87778,66.19839)" />
      <path
         sodipodi:type="arc"
         style="fill:url(#linearGradient3432);fill-opacity:1;fill-rule:evenodd;stroke:none;stroke-width:1pt;stroke-linecap:butt;stroke-linejoin:miter;stroke-opacity:1"
         id="path552"
         d="M 30.266524 20.25193 A 5.6613641 7.185555 0 1 1  18.943796,20.25193 A 5.6613641 7.185555 0 1 1  30.266524 20.25193 z"
         sodipodi:cx="24.60516"
         sodipodi:cy="20.25193"
         sodipodi:rx="5.6613641"
         sodipodi:ry="7.185555"
         transform="matrix(1.032385,0,0,1.059539,38.51553,63.14862)" />
      <path
         style="font-size:12px;fill:url(#radialGradient3434);fill-rule:evenodd;stroke-width:1pt"
         d="M 40.8895,10.542 C 39.9129,9.66286 36.9358,4.78699 29.1018,7.74536 C 29.1018,4.40575 30.4218,-0.348053 34.7446,-0.348053 C 40.2774,-0.175171 40.8895,7.20238 40.8895,10.542 z "
         id="path600"
         sodipodi:nodetypes="cccc"
         transform="translate(28.93704,74.68007)" />
      <g
         id="g611"
         transform="matrix(0.718586,0,0,0.718583,21.47864,70.38647)">
        <path
           sodipodi:type="arc"
           style="fill:black;fill-opacity:1;fill-rule:evenodd;stroke:none;stroke-width:1pt;stroke-linecap:butt;stroke-linejoin:miter;stroke-opacity:1"
           id="path604"
           d="M 64.476341 21.172836 A 2.074306 2.1607211 0 1 1  60.327729,21.172836 A 2.074306 2.1607211 0 1 1  64.476341 21.172836 z"
           sodipodi:cx="62.402035"
           sodipodi:cy="21.172836"
           sodipodi:rx="2.074306"
           sodipodi:ry="2.1607211"
           transform="translate(0,-0.122253)" />
        <path
           sodipodi:type="arc"
           style="fill:gray;fill-opacity:1;fill-rule:evenodd;stroke:none;stroke-width:1pt;stroke-linecap:butt;stroke-linejoin:miter;stroke-opacity:1"
           id="path605"
           d="M 63.957765 20.394981 A 0.77786398 1.037178 0 1 1  62.402037,20.394981 A 0.77786398 1.037178 0 1 1  63.957765 20.394981 z"
           sodipodi:cx="63.179901"
           sodipodi:cy="20.394981"
           sodipodi:rx="0.77786398"
           sodipodi:ry="1.037178" />
      </g>
      <path
         style="fill:url(#linearGradient3436);fill-opacity:1;fill-rule:evenodd;stroke:none;stroke-width:1pt;stroke-linecap:butt;stroke-linejoin:miter;stroke-opacity:1"
         d="M 47.7918,31.6212 C 47.9956,32.4768 54.0663,35.0436 63.6817,31.3767 C 64.0687,31.3359 65.9802,29.2664 65.9725,29.6741 C 65.9538,30.7845 65.0877,32.2618 63.9602,33.4937 C 61.5562,36.4271 57.4073,38.2215 52.681,37.7327 C 50.3994,37.529 48.6387,36.3476 47.5794,34.5547 C 46.6743,32.864 47.2622,32.5584 47.7918,31.6212 z "
         id="path623"
         sodipodi:nodetypes="ccscccc"
         transform="translate(-1.191483,67.20013)" />
      <path
         style="fill:url(#linearGradient3438);fill-opacity:1;fill-rule:evenodd;stroke:none;stroke-width:1pt;stroke-linecap:butt;stroke-linejoin:miter;stroke-opacity:1"
         d="M 48.1585,31.6212 C 48.3623,32.4768 54.0663,35.4103 63.6817,31.7434 C 64.9709,31.0814 65.8555,31.6562 64.5373,33.699 C 62.1334,36.1436 54.8404,37.1215 52.5588,36.7548 C 50.2772,36.5511 47.5067,35.7362 47.0585,34.3102 C 46.7194,33.0835 47.14,32.3139 48.1585,31.6212 z "
         id="path631"
         sodipodi:nodetypes="cccccc"
         transform="translate(-1.654139,65.38396)" />
      <path
         style="fill:url(#linearGradient3440);fill-opacity:1;fill-rule:evenodd;stroke:none;stroke-width:1pt;stroke-linecap:butt;stroke-linejoin:miter;stroke-opacity:1"
         d="M 48.1585,31.6212 C 48.3623,32.4768 53.7538,36.5821 63.9942,32.6028 C 64.6778,32.3109 65.9243,31.7422 66.181,31.785 C 66.5577,31.8591 65.7042,32.7557 64.6936,33.7772 C 62.2897,36.2217 54.8404,37.1215 52.5588,36.7548 C 50.2772,36.5511 47.5067,35.7362 47.0585,34.3102 C 46.7194,33.0835 47.14,32.3139 48.1585,31.6212 z "
         id="path621"
         sodipodi:nodetypes="ccscccc"
         transform="translate(-1.558161,64.99997)" />
    </g>
  </g>
</svg>
